<svg width="95" height="24" viewBox="0 0 95 24" fill="none" xmlns="http://www.w3.org/2000/svg">
<circle cx="12" cy="12" r="12" fill="#2161F5"/>
<path d="M15.5383 10.9664L16.2649 14.6841C16.3094 14.9123 16.1494 15.1339 15.9074 15.1792L8.02094 16.6546C7.77897 16.6999 7.54666 16.5517 7.50207 16.3235L6.77549 12.6058L15.5383 10.9664ZM15.2153 9.31402L6.45256 10.9534L6.21037 9.71417C6.16578 9.48603 6.3258 9.26439 6.56778 9.21912L14.4543 7.74366C14.6963 7.69838 14.9286 7.84663 14.9732 8.07477L15.2153 9.31402Z" fill="white"/>
<path d="M16.2703 10.3706L16.9904 14.0896C17.0346 14.3178 16.8742 14.5392 16.6321 14.5841L8.74321 16.0472C8.50116 16.0921 8.26912 15.9435 8.22494 15.7153L7.5049 11.9963L16.2703 10.3706ZM15.9503 8.71774L7.18488 10.3434L6.94487 9.10377C6.90069 8.87556 7.06109 8.65416 7.30314 8.60927L15.192 7.14615C15.4341 7.10126 15.6661 7.24987 15.7103 7.47809L15.9503 8.71774Z" fill="white" fill-opacity="0.5"/>
<path d="M30.092 16.108C29.868 16.108 29.684 16.056 29.54 15.952C29.404 15.848 29.316 15.708 29.276 15.532C29.244 15.356 29.28 15.16 29.384 14.944L32.456 8.212C32.584 7.94 32.736 7.744 32.912 7.624C33.088 7.496 33.292 7.432 33.524 7.432C33.756 7.432 33.96 7.496 34.136 7.624C34.312 7.744 34.46 7.94 34.58 8.212L37.676 14.944C37.78 15.16 37.816 15.36 37.784 15.544C37.76 15.72 37.68 15.86 37.544 15.964C37.408 16.06 37.232 16.108 37.016 16.108C36.744 16.108 36.532 16.044 36.38 15.916C36.236 15.788 36.108 15.588 35.996 15.316L35.276 13.648L36.02 14.164H31.016L31.76 13.648L31.052 15.316C30.932 15.596 30.804 15.8 30.668 15.928C30.54 16.048 30.348 16.108 30.092 16.108ZM33.5 9.52L31.964 13.18L31.64 12.712H35.396L35.072 13.18L33.524 9.52H33.5ZM41.5406 16.132C40.9006 16.132 40.3406 16.008 39.8606 15.76C39.3886 15.504 39.0246 15.144 38.7686 14.68C38.5126 14.216 38.3846 13.668 38.3846 13.036C38.3846 12.564 38.4566 12.14 38.6006 11.764C38.7446 11.388 38.9526 11.068 39.2246 10.804C39.5046 10.54 39.8406 10.34 40.2326 10.204C40.6246 10.06 41.0606 9.988 41.5406 9.988C41.7886 9.988 42.0526 10.02 42.3326 10.084C42.6126 10.14 42.8886 10.24 43.1606 10.384C43.3206 10.456 43.4286 10.56 43.4846 10.696C43.5486 10.824 43.5726 10.96 43.5566 11.104C43.5406 11.24 43.4886 11.364 43.4006 11.476C43.3206 11.58 43.2166 11.652 43.0886 11.692C42.9606 11.724 42.8166 11.7 42.6566 11.62C42.5046 11.532 42.3446 11.468 42.1766 11.428C42.0166 11.388 41.8646 11.368 41.7206 11.368C41.4806 11.368 41.2686 11.408 41.0846 11.488C40.9006 11.56 40.7446 11.668 40.6166 11.812C40.4966 11.948 40.4006 12.12 40.3286 12.328C40.2646 12.536 40.2326 12.776 40.2326 13.048C40.2326 13.576 40.3606 13.992 40.6166 14.296C40.8806 14.592 41.2486 14.74 41.7206 14.74C41.8646 14.74 42.0166 14.724 42.1766 14.692C42.3366 14.652 42.4966 14.588 42.6566 14.5C42.8166 14.42 42.9606 14.4 43.0886 14.44C43.2166 14.48 43.3166 14.556 43.3886 14.668C43.4686 14.772 43.5126 14.896 43.5206 15.04C43.5366 15.176 43.5126 15.312 43.4486 15.448C43.3926 15.576 43.2886 15.676 43.1366 15.748C42.8646 15.884 42.5926 15.98 42.3206 16.036C42.0486 16.1 41.7886 16.132 41.5406 16.132ZM47.3458 16.132C46.6498 16.132 46.0498 16.008 45.5458 15.76C45.0498 15.504 44.6658 15.148 44.3938 14.692C44.1298 14.228 43.9978 13.684 43.9978 13.06C43.9978 12.452 44.1258 11.92 44.3818 11.464C44.6378 11 44.9938 10.64 45.4498 10.384C45.9138 10.12 46.4378 9.988 47.0218 9.988C47.4458 9.988 47.8298 10.06 48.1738 10.204C48.5178 10.34 48.8138 10.54 49.0618 10.804C49.3098 11.06 49.4978 11.376 49.6258 11.752C49.7538 12.12 49.8178 12.532 49.8178 12.988C49.8178 13.14 49.7698 13.256 49.6738 13.336C49.5778 13.408 49.4378 13.444 49.2538 13.444H45.4858V12.508H48.5098L48.3178 12.676C48.3178 12.348 48.2698 12.076 48.1738 11.86C48.0778 11.636 47.9378 11.468 47.7538 11.356C47.5778 11.244 47.3578 11.188 47.0938 11.188C46.7978 11.188 46.5458 11.256 46.3378 11.392C46.1298 11.528 45.9698 11.724 45.8578 11.98C45.7458 12.236 45.6898 12.544 45.6898 12.904V13C45.6898 13.608 45.8298 14.056 46.1098 14.344C46.3978 14.632 46.8218 14.776 47.3818 14.776C47.5738 14.776 47.7938 14.752 48.0418 14.704C48.2898 14.656 48.5218 14.58 48.7378 14.476C48.9218 14.388 49.0858 14.36 49.2298 14.392C49.3738 14.416 49.4858 14.48 49.5658 14.584C49.6458 14.688 49.6898 14.808 49.6978 14.944C49.7138 15.08 49.6858 15.216 49.6138 15.352C49.5418 15.48 49.4218 15.588 49.2538 15.676C48.9818 15.828 48.6738 15.94 48.3298 16.012C47.9938 16.092 47.6658 16.132 47.3458 16.132ZM55.1318 16.132C54.2198 16.132 53.4398 15.952 52.7918 15.592C52.1438 15.232 51.6438 14.728 51.2918 14.08C50.9478 13.424 50.7758 12.652 50.7758 11.764C50.7758 11.1 50.8718 10.504 51.0638 9.976C51.2638 9.44 51.5518 8.984 51.9278 8.608C52.3038 8.224 52.7598 7.928 53.2958 7.72C53.8398 7.512 54.4518 7.408 55.1318 7.408C55.5318 7.408 55.9358 7.46 56.3438 7.564C56.7598 7.66 57.1198 7.8 57.4238 7.984C57.6238 8.096 57.7598 8.236 57.8318 8.404C57.9038 8.572 57.9238 8.74 57.8918 8.908C57.8678 9.076 57.7998 9.22 57.6878 9.34C57.5838 9.46 57.4518 9.536 57.2918 9.568C57.1318 9.6 56.9518 9.564 56.7518 9.46C56.5118 9.316 56.2598 9.212 55.9958 9.148C55.7318 9.084 55.4638 9.052 55.1918 9.052C54.6558 9.052 54.2038 9.16 53.8358 9.376C53.4758 9.584 53.2038 9.888 53.0198 10.288C52.8358 10.688 52.7438 11.18 52.7438 11.764C52.7438 12.34 52.8358 12.832 53.0198 13.24C53.2038 13.648 53.4758 13.96 53.8358 14.176C54.2038 14.384 54.6558 14.488 55.1918 14.488C55.4478 14.488 55.7078 14.456 55.9718 14.392C56.2438 14.328 56.5038 14.228 56.7518 14.092C56.9598 13.988 57.1438 13.952 57.3038 13.984C57.4718 14.008 57.6078 14.08 57.7118 14.2C57.8238 14.312 57.8918 14.448 57.9158 14.608C57.9478 14.768 57.9318 14.928 57.8678 15.088C57.8038 15.248 57.6838 15.384 57.5078 15.496C57.2118 15.696 56.8478 15.852 56.4158 15.964C55.9838 16.076 55.5558 16.132 55.1318 16.132ZM61.485 16.132C60.853 16.132 60.301 16.008 59.829 15.76C59.365 15.512 59.005 15.156 58.749 14.692C58.493 14.228 58.365 13.68 58.365 13.048C58.365 12.576 58.437 12.152 58.581 11.776C58.725 11.4 58.933 11.08 59.205 10.816C59.485 10.544 59.817 10.34 60.201 10.204C60.585 10.06 61.013 9.988 61.485 9.988C62.117 9.988 62.665 10.112 63.129 10.36C63.601 10.608 63.965 10.96 64.221 11.416C64.485 11.872 64.617 12.416 64.617 13.048C64.617 13.528 64.541 13.956 64.389 14.332C64.245 14.708 64.037 15.032 63.765 15.304C63.493 15.576 63.161 15.784 62.769 15.928C62.385 16.064 61.957 16.132 61.485 16.132ZM61.485 14.776C61.749 14.776 61.977 14.712 62.169 14.584C62.361 14.456 62.513 14.268 62.625 14.02C62.737 13.764 62.793 13.44 62.793 13.048C62.793 12.464 62.673 12.036 62.433 11.764C62.193 11.484 61.877 11.344 61.485 11.344C61.229 11.344 61.001 11.404 60.801 11.524C60.609 11.644 60.457 11.832 60.345 12.088C60.241 12.336 60.189 12.656 60.189 13.048C60.189 13.632 60.309 14.068 60.549 14.356C60.789 14.636 61.101 14.776 61.485 14.776ZM66.6314 16.096C66.3354 16.096 66.1074 16.012 65.9474 15.844C65.7954 15.668 65.7194 15.424 65.7194 15.112V11.008C65.7194 10.688 65.7954 10.444 65.9474 10.276C66.1074 10.1 66.3354 10.012 66.6314 10.012C66.9194 10.012 67.1394 10.1 67.2914 10.276C67.4514 10.444 67.5314 10.688 67.5314 11.008V15.112C67.5314 15.424 67.4554 15.668 67.3034 15.844C67.1514 16.012 66.9274 16.096 66.6314 16.096ZM66.6314 9.028C66.2954 9.028 66.0354 8.952 65.8514 8.8C65.6754 8.64 65.5874 8.416 65.5874 8.128C65.5874 7.832 65.6754 7.608 65.8514 7.456C66.0354 7.296 66.2954 7.216 66.6314 7.216C66.9674 7.216 67.2234 7.296 67.3994 7.456C67.5754 7.608 67.6634 7.832 67.6634 8.128C67.6634 8.416 67.5754 8.64 67.3994 8.8C67.2234 8.952 66.9674 9.028 66.6314 9.028ZM69.8424 16.108C69.5464 16.108 69.3184 16.028 69.1584 15.868C69.0064 15.708 68.9304 15.48 68.9304 15.184V10.924C68.9304 10.628 69.0064 10.404 69.1584 10.252C69.3184 10.092 69.5384 10.012 69.8184 10.012C70.1064 10.012 70.3264 10.092 70.4784 10.252C70.6304 10.404 70.7064 10.628 70.7064 10.924V11.608L70.5744 11.212C70.7584 10.82 71.0304 10.52 71.3904 10.312C71.7584 10.096 72.1744 9.988 72.6384 9.988C73.1104 9.988 73.4984 10.08 73.8024 10.264C74.1064 10.44 74.3344 10.712 74.4864 11.08C74.6384 11.44 74.7144 11.9 74.7144 12.46V15.184C74.7144 15.48 74.6344 15.708 74.4744 15.868C74.3224 16.028 74.0984 16.108 73.8024 16.108C73.5144 16.108 73.2904 16.028 73.1304 15.868C72.9784 15.708 72.9024 15.48 72.9024 15.184V12.544C72.9024 12.136 72.8264 11.844 72.6744 11.668C72.5304 11.484 72.3064 11.392 72.0024 11.392C71.6184 11.392 71.3104 11.512 71.0784 11.752C70.8544 11.992 70.7424 12.312 70.7424 12.712V15.184C70.7424 15.8 70.4424 16.108 69.8424 16.108ZM76.8351 16.072C76.7231 16.072 76.6351 16.04 76.5711 15.976C76.5071 15.904 76.4751 15.808 76.4751 15.688V7.924C76.4751 7.796 76.5071 7.7 76.5711 7.636C76.6431 7.572 76.7351 7.54 76.8471 7.54H79.6671C80.5631 7.54 81.2511 7.756 81.7311 8.188C82.2111 8.62 82.4511 9.236 82.4511 10.036C82.4511 10.828 82.2111 11.444 81.7311 11.884C81.2511 12.316 80.5631 12.532 79.6671 12.532H77.2071V15.688C77.2071 15.808 77.1751 15.904 77.1111 15.976C77.0551 16.04 76.9631 16.072 76.8351 16.072ZM77.2071 11.884H79.6071C80.3031 11.884 80.8271 11.728 81.1791 11.416C81.5311 11.104 81.7071 10.644 81.7071 10.036C81.7071 9.428 81.5311 8.968 81.1791 8.656C80.8271 8.336 80.3031 8.176 79.6071 8.176H77.2071V11.884ZM85.3147 16.096C84.9227 16.096 84.5707 16.02 84.2587 15.868C83.9547 15.716 83.7107 15.508 83.5267 15.244C83.3507 14.98 83.2627 14.684 83.2627 14.356C83.2627 13.924 83.3707 13.584 83.5867 13.336C83.8027 13.088 84.1667 12.916 84.6787 12.82C85.1907 12.716 85.8947 12.664 86.7907 12.664H87.3067V13.204H86.8027C86.0827 13.204 85.5187 13.236 85.1107 13.3C84.7107 13.356 84.4307 13.464 84.2707 13.624C84.1107 13.784 84.0307 14.008 84.0307 14.296C84.0307 14.656 84.1547 14.948 84.4027 15.172C84.6507 15.396 84.9867 15.508 85.4107 15.508C85.7547 15.508 86.0547 15.428 86.3107 15.268C86.5747 15.1 86.7827 14.872 86.9347 14.584C87.0867 14.296 87.1627 13.968 87.1627 13.6V12.232C87.1627 11.696 87.0547 11.308 86.8387 11.068C86.6227 10.82 86.2787 10.696 85.8067 10.696C85.5027 10.696 85.2067 10.736 84.9187 10.816C84.6387 10.896 84.3387 11.024 84.0187 11.2C83.9307 11.248 83.8507 11.264 83.7787 11.248C83.7147 11.232 83.6627 11.2 83.6227 11.152C83.5907 11.104 83.5667 11.048 83.5507 10.984C83.5427 10.912 83.5547 10.844 83.5867 10.78C83.6187 10.716 83.6747 10.664 83.7547 10.624C84.0907 10.44 84.4307 10.304 84.7747 10.216C85.1267 10.12 85.4667 10.072 85.7947 10.072C86.2667 10.072 86.6547 10.152 86.9587 10.312C87.2707 10.472 87.4987 10.712 87.6427 11.032C87.7947 11.352 87.8707 11.764 87.8707 12.268V15.7C87.8707 15.82 87.8427 15.912 87.7867 15.976C87.7307 16.04 87.6467 16.072 87.5347 16.072C87.4227 16.072 87.3347 16.04 87.2707 15.976C87.2067 15.912 87.1747 15.82 87.1747 15.7V14.596H87.2947C87.2227 14.908 87.0947 15.176 86.9107 15.4C86.7267 15.624 86.4987 15.796 86.2267 15.916C85.9547 16.036 85.6507 16.096 85.3147 16.096ZM90.9496 18.232C90.8536 18.232 90.7776 18.204 90.7216 18.148C90.6656 18.1 90.6336 18.032 90.6256 17.944C90.6256 17.864 90.6416 17.78 90.6736 17.692L91.5016 15.808V16.144L89.1496 10.648C89.1096 10.552 89.0936 10.464 89.1016 10.384C89.1176 10.296 89.1536 10.228 89.2096 10.18C89.2736 10.124 89.3616 10.096 89.4736 10.096C89.5776 10.096 89.6536 10.12 89.7016 10.168C89.7576 10.216 89.8056 10.292 89.8456 10.396L91.9816 15.568H91.6816L93.8176 10.396C93.8656 10.284 93.9176 10.208 93.9736 10.168C94.0296 10.12 94.1096 10.096 94.2136 10.096C94.3176 10.096 94.3936 10.124 94.4416 10.18C94.4976 10.228 94.5296 10.292 94.5376 10.372C94.5456 10.452 94.5296 10.54 94.4896 10.636L91.3576 17.944C91.3096 18.056 91.2536 18.132 91.1896 18.172C91.1336 18.212 91.0536 18.232 90.9496 18.232Z" fill="#202A50"/>
</svg>
